<?xml version="1.0" standalone="no"?>
<!DOCTYPE svg PUBLIC "-//W3C//DTD SVG 1.1//EN" "http://www.w3.org/Graphics/SVG/1.1/DTD/svg11.dtd" >
<svg>
<metadata>
Created by FontForge 20090622 at Tue Jul 14 06:48:14 2015
 By deploy user
Copyright (c) 2011, Mariela Monsalve (marmonsalve@gmail.com), Copyright (c) 2011, Angelina Sanchez (ange_dg@yahoo.com.ar), With Reserved Font Name "Ruda"
</metadata>
<defs>
<font id="Ruda-Bold" horiz-adv-x="542" >
  <font-face 
    font-family="Ruda"
    font-weight="700"
    font-stretch="normal"
    units-per-em="1000"
    panose-1="2 0 0 0 0 0 0 0 0 0"
    ascent="800"
    descent="-200"
    x-height="585"
    cap-height="699"
    bbox="-39 -261 905 903"
    underline-thickness="50"
    underline-position="-50"
    unicode-range="U+0020-U+20AC"
  />
<missing-glyph horiz-adv-x="276" 
 />
    <glyph glyph-name=".notdef" horiz-adv-x="276" 
 />
    <glyph glyph-name=".null" horiz-adv-x="0" 
 />
    <glyph glyph-name="nonmarkingreturn" horiz-adv-x="333" 
 />
    <glyph glyph-name="space" unicode=" " horiz-adv-x="235" 
 />
    <glyph glyph-name="exclam" unicode="!" horiz-adv-x="284" 
d="M94 196l-15 503h127l-16 -503h-96zM74 0v109h138v-109h-138z" />
    <glyph glyph-name="quotedbl" unicode="&#x22;" horiz-adv-x="375" 
d="M150 721v-33l-17 -224h-69l-16 257h102zM327 721v-33l-18 -224h-69l-15 207l-1 50h103z" />
    <glyph glyph-name="numbersign" unicode="#" horiz-adv-x="571" 
d="M17 183v99h96l20 130h-81v99h97l29 184h98l-29 -184h115l29 184h99l-29 -184h81v-99h-97l-20 -130h82v-99h-98l-28 -183h-98l28 183h-115l-28 -183h-99l28 183h-80zM212 282h115l20 130h-115z" />
    <glyph glyph-name="dollar" unicode="$" horiz-adv-x="531" 
d="M274 92q88 0 88 96q0 41 -32.5 68t-99.5 58t-85 41t-46 33q-52 43 -52 122.5t43 130.5t124 66v95h97v-92q70 -7 144 -27l-19 -98q-109 21 -168 21t-79.5 -17t-20.5 -59t24 -64q32 -27 131 -71q28 -12 62.5 -32.5t46 -33.5t24.5 -32q26 -36 26 -94q0 -83 -47 -139.5
t-126 -71.5v-109h-96v106q-45 5 -91 19.5t-94 39.5q9 27 15 43.5l10 28t9 24.5q115 -52 212 -52z" />
    <glyph glyph-name="percent" unicode="%" horiz-adv-x="812" 
d="M170 -9l204 402l157 340h102l-190 -386l-170 -356h-103zM204 399q-66 0 -112.5 39.5t-46.5 120.5t46 119.5t113 38.5t113 -38.5t46 -119.5t-46.5 -120.5t-112.5 -39.5zM608 -13q-67 0 -113 39t-46 120.5t46 120t113 38.5t113 -38.5t46 -120t-46 -120.5t-113 -39z
M204.5 488q67.5 0 67.5 70t-67.5 70t-67.5 -70t67.5 -70zM608 76q67 0 67 70t-67 70t-67 -70t67 -70z" />
    <glyph glyph-name="ampersand" unicode="&#x26;" horiz-adv-x="679" 
d="M253 -13q-104 0 -167 62.5t-63 138t41 125t95 71.5q-86 57 -86 153q0 76 53 125.5t148 49.5t144 -50.5t49 -120.5q0 -102 -105 -162q74 -50 126 -113q32 56 58 124l99 -29q-34 -89 -91 -177q51 -77 94 -193l-114 -4q-12 40 -52 109q-104 -109 -229 -109zM143 189
q0 -48 31.5 -78.5t79.5 -30.5t93 28t78 72q-69 90 -165 148q-54 -19 -85.5 -55t-31.5 -84zM327 474q24 29 24 66.5t-20 59.5t-62 22q-80 0 -80 -80q0 -73 78 -113q36 16 60 45z" />
    <glyph glyph-name="quotesingle" unicode="'" horiz-adv-x="208" 
d="M155 723v-34l-17 -223h-70l-14 209l-1 48h102z" />
    <glyph glyph-name="parenleft" unicode="(" horiz-adv-x="336" 
d="M61 336q0 346 201 460l50 -68q-133 -87 -133 -391t133 -393l-50 -68q-89 50 -145 161.5t-56 298.5z" />
    <glyph glyph-name="parenright" unicode=")" horiz-adv-x="336" 
d="M23 -56q133 89 133 393t-133 391l51 68q200 -115 200 -460t-200 -460z" />
    <glyph glyph-name="asterisk" unicode="*" horiz-adv-x="420" 
d="M158 715h103v-20l-18 -105l97 48l20 7l31 -99l-20 -6l-112 -16l89 -81l14 -14l-79 -67l-11 16l-63 103l-64 -104l-12 -16l-76 67l13 15l88 81l-111 16l-19 6l31 99l20 -7l97 -48l-18 105v20z" />
    <glyph glyph-name="plus" unicode="+" horiz-adv-x="630" 
d="M264 19v224h-220v99h220v222h101v-222h220v-99h-220v-224h-101z" />
    <glyph glyph-name="comma" unicode="," horiz-adv-x="288" 
d="M88 -20v126h115v-54q0 -156 -84 -222l-63 36q32 41 32 114z" />
    <glyph glyph-name="hyphen" unicode="-" horiz-adv-x="319" 
d="M38 278v98h243v-98h-243z" />
    <glyph glyph-name="period" unicode="." horiz-adv-x="277" 
d="M68 0v112h138v-112h-138z" />
    <glyph glyph-name="slash" unicode="/" horiz-adv-x="462" 
d="M-4 -98l184 423l153 374h114l-179 -414l-158 -383h-114z" />
    <glyph glyph-name="zero" unicode="0" horiz-adv-x="596" 
d="M298 -13q-56 0 -97.5 16t-76.5 55q-72 79 -72 292q0 212 72 292q35 38 76.5 54t97.5 16t97.5 -16t76.5 -54q71 -79 71 -292q0 -214 -71 -292q-35 -39 -76.5 -55t-97.5 -16zM202 144q30 -56 96.5 -56t96 55t29.5 184t-16 188t-41.5 77.5t-69 18.5t-69.5 -19
q-56 -42 -56 -240q0 -152 30 -208z" />
    <glyph glyph-name="one" unicode="1" horiz-adv-x="533" 
d="M73 0v100l170 -2l6 483h-5l-133 -138l-76 76l209 187l116 -8v-600l149 2v-100h-436z" />
    <glyph glyph-name="two" unicode="2" horiz-adv-x="565" 
d="M51 0v87q67 71 149 168.5t103.5 125.5t47 76.5t25.5 85.5q0 65 -75 65q-44 0 -102.5 -21t-107.5 -52l-48 87q37 31 103.5 60.5t135.5 29.5q93 0 152.5 -48.5t59.5 -129.5q0 -58 -33.5 -118.5t-90.5 -131.5l-150 -182v-6l289 6v-102h-458z" />
    <glyph glyph-name="three" unicode="3" horiz-adv-x="527" 
d="M258 89q52 0 72 24.5t20 87.5t-28.5 91.5t-93.5 28.5h-110v95q135 11 167 23q47 17 47 77t-22.5 77.5t-84.5 17.5t-166 -13l-14 94q80 20 174 20q232 0 232 -182q0 -111 -95 -152v-5q117 -32 117 -173q0 -94 -55.5 -153.5t-173.5 -59.5q-57 0 -116 16t-90 32l-30 16
l39 86q122 -48 211 -48z" />
    <glyph glyph-name="four" unicode="4" horiz-adv-x="560" 
d="M21 152v80l165 479l112 -15l-153 -445v-5l195 5l26 259h88v-257l65 2v-103h-65l1 -152h-117l2 152h-319z" />
    <glyph glyph-name="five" unicode="5" horiz-adv-x="533" 
d="M269 89q53 0 73.5 27t20.5 94t-28 92.5t-170 25.5l-96 -2l55 373h329v-99l-232 4l-25 -177q68 -4 115.5 -14t88.5 -33q84 -45 84 -168q0 -106 -61 -165.5t-167 -59.5q-59 0 -118 19t-88 38l-30 19l38 86q122 -60 211 -60z" />
    <glyph glyph-name="six" unicode="6" horiz-adv-x="575" 
d="M464 588q-86 21 -153.5 21t-97 -36t-37.5 -148q51 5 91 5q124 0 189.5 -49.5t65.5 -161.5t-61 -172t-173.5 -60t-174 80t-61.5 265q0 221 83 306q40 40 87 57t98 17q90 0 150 -22l20 -8zM173 254q0 -112 37 -146q28 -23 89 -23t84.5 29t23.5 98.5t-24 94t-95 24.5
q-49 0 -115 -10v-67z" />
    <glyph glyph-name="seven" unicode="7" horiz-adv-x="514" 
d="M27 699h461v-72l-292 -635l-123 10l292 596v6l-338 -7v102z" />
    <glyph glyph-name="eight" unicode="8" horiz-adv-x="563" 
d="M64 531q0 81 56 131t161 50t161 -51t56 -131q0 -108 -98 -169q123 -66 123 -173q0 -83 -67 -142t-178.5 -59t-175 62.5t-63.5 146.5q0 57 32.5 103.5t77.5 69.5q-85 62 -85 162zM161 192q0 -106 120.5 -106t120.5 95q0 50 -32.5 79t-116.5 57q-47 -18 -69.5 -45.5
t-22.5 -79.5zM382 525q0 93 -101.5 93t-101.5 -83q0 -44 27 -73.5t91 -55.5q85 33 85 119z" />
    <glyph glyph-name="nine" unicode="9" horiz-adv-x="573" 
d="M284 86q47 0 68 21q43 41 46 175q-66 -12 -120 -12q-106 0 -166 52.5t-60 160.5t60.5 168.5t172 60.5t173.5 -81t62 -268.5t-58 -281.5t-185 -94q-47 0 -99 15.5t-80 31.5l-28 16l36 87q100 -51 178 -51zM354 598q-25 15 -84 15t-80.5 -30.5t-21.5 -94.5t19.5 -90.5
t86.5 -26.5q54 0 124 20q0 182 -44 207z" />
    <glyph glyph-name="colon" unicode=":" horiz-adv-x="331" 
d="M100 441v112h138v-112h-138zM100 0v112h138v-112h-138z" />
    <glyph glyph-name="semicolon" unicode=";" horiz-adv-x="331" 
d="M111 -20v126h115v-54q0 -156 -84 -222l-63 36q32 41 32 114zM100 441v112h138v-112h-138z" />
    <glyph glyph-name="less" unicode="&#x3c;" horiz-adv-x="654" 
d="M67 251v86l541 240v-112l-396 -168v-6l396 -169v-111z" />
    <glyph glyph-name="equal" unicode="=" horiz-adv-x="637" 
d="M44 340v100h548v-100h-548zM44 143v99h548v-99h-548z" />
    <glyph glyph-name="greater" unicode="&#x3e;" horiz-adv-x="656" 
d="M57 11v111l395 169v6l-395 168v112l540 -240v-86z" />
    <glyph glyph-name="question" unicode="?" horiz-adv-x="481" 
d="M62 559l-39 90q12 7 32 17.5t77 28t108 17.5q96 0 157 -53.5t61 -136.5q0 -76 -43 -123q-23 -25 -38.5 -38t-46 -34.5t-45 -34.5t-28.5 -38.5t-15 -57.5h-103v10q0 52 19 92.5t48.5 64.5t59.5 45q72 50 72 119q0 80 -89 80q-37 0 -83.5 -12t-103.5 -36zM124 0v109h137
v-109h-137z" />
    <glyph glyph-name="at" unicode="@" horiz-adv-x="831" 
d="M515 -33q-45 -15 -107.5 -15t-124.5 23.5t-113 68.5t-81.5 117.5t-30.5 164t32.5 166t85.5 118.5q111 92 251 92t240.5 -85t100.5 -230q0 -112 -61.5 -191.5t-134.5 -79.5q-41 0 -59 27t-22 79h-4q-56 -106 -123 -106q-46 0 -82.5 50.5t-36.5 168.5t40.5 166.5
t124.5 48.5q59 0 161 -27q-2 -139 -2 -198.5t0.5 -80t2.5 -32.5t4.5 -14.5t7.5 -2.5q31 0 67 54t36 134q0 109 -68.5 173t-193 64t-204 -74.5t-79.5 -214t79 -220t194 -80.5q28 0 90 11zM480 456q-24 8 -70 8t-57.5 -23.5t-11.5 -104.5q0 -130 33 -130q35 0 70.5 85.5
t35.5 164.5z" />
    <glyph glyph-name="A" unicode="A" 
d="M-3 0l199 699h142l198 -699h-121l-44 172h-208l-45 -172h-121zM185 270h164l-79 326h-6z" />
    <glyph glyph-name="B" unicode="B" horiz-adv-x="637" 
d="M328 712q215 0 215 -192q0 -48 -12.5 -71.5t-20.5 -34.5t-20 -20q-20 -14 -46 -26v-4q117 -31 117 -155q0 -128 -71 -179q-63 -43 -155 -43q-79 0 -238 17l5 322l-5 373q133 13 231 13zM214 88q72 -9 128 -9t76 29t20 97t-29 91t-83 23l-112 1v-232zM214 409
q72 -1 121 -1t68.5 24t19.5 83.5t-22.5 83t-75.5 23.5l-111 -6v-207z" />
    <glyph glyph-name="C" unicode="C" horiz-adv-x="604" 
d="M324 -13q-122 0 -191 85t-69 270q0 253 112 328q36 24 75 33t115.5 9t158.5 -20l-13 -98q-94 14 -173.5 14t-101.5 -23q-49 -51 -49 -246q0 -91 17 -151.5t40.5 -81t69 -20.5t95.5 14t108 41l36 -89q-11 -7 -30.5 -18t-79.5 -29t-120 -18z" />
    <glyph glyph-name="D" unicode="D" horiz-adv-x="655" 
d="M97 699q150 13 221 13t119 -19.5t77 -51t46 -78.5q30 -79 30 -205q0 -371 -277 -371q-45 0 -216 13v699zM311 88q75 0 101 24q51 47 51 244.5t-48 235.5q-23 19 -88 19l-114 -6l1 -509q54 -8 97 -8z" />
    <glyph glyph-name="E" unicode="E" horiz-adv-x="535" 
d="M97 0v699h378v-102l-261 3l-5 -196h241v-99h-241l5 -205l261 2v-102h-378z" />
    <glyph glyph-name="F" unicode="F" horiz-adv-x="521" 
d="M97 0v699h378v-105l-262 3l-4 -195h234v-98h-234l5 -304h-117z" />
    <glyph glyph-name="G" unicode="G" horiz-adv-x="636" 
d="M333 377h217v-348q-88 -42 -209 -42q-48 0 -86.5 8.5t-75 32.5t-61.5 64q-54 89 -54 260q0 217 82 293q41 38 90.5 52.5t134 14.5t177.5 -21l-14 -97q-137 14 -183 14q-93 0 -116 -24q-47 -47 -47 -232.5t49 -237.5q26 -28 97.5 -28t102.5 11v189l-104 6v85z" />
    <glyph glyph-name="H" unicode="H" horiz-adv-x="688" 
d="M97 0v699h117l-3 -293h266l-3 293h117v-699h-117l3 305h-265l2 -305h-117z" />
    <glyph glyph-name="I" unicode="I" horiz-adv-x="313" 
d="M97 -1l4 322l-4 378h118l-4 -310l4 -390h-118z" />
    <glyph glyph-name="J" unicode="J" horiz-adv-x="342" 
d="M0 95q35 -8 66.5 -8t41.5 9q25 19 25 137v466h116v-458q0 -254 -182 -254q-33 0 -80 9z" />
    <glyph glyph-name="K" unicode="K" horiz-adv-x="621" 
d="M484 0l-267 360l247 339h140l-262 -334v-6l289 -359h-147zM215 699v-699h-118l5 355l-5 344h118z" />
    <glyph glyph-name="L" unicode="L" horiz-adv-x="467" 
d="M97 0v699h117l-5 -597l255 2v-104h-367z" />
    <glyph glyph-name="M" unicode="M" horiz-adv-x="821" 
d="M93 0l23 699h158l133 -424h6l131 424h159l24 -699h-116l-2 584h-5l-131 -412h-124l-134 412h-6l1 -584h-117z" />
    <glyph glyph-name="N" unicode="N" horiz-adv-x="699" 
d="M97 0v699h153l251 -564h5l-14 564h111v-699h-153l-250 563h-5l13 -563h-111z" />
    <glyph glyph-name="O" unicode="O" horiz-adv-x="680" 
d="M340 -13q-48 0 -87 9.5t-75 34t-60 64.5q-54 87 -54 256q0 213 82 291q40 38 86.5 54t107.5 16t107.5 -16t86.5 -54q82 -78 82 -291q0 -243 -114 -321q-64 -43 -162 -43zM283.5 96.5q22.5 -5.5 68.5 -5.5t76 17q66 37 66 240q0 84 -8 135t-28.5 79t-47 37t-70.5 9t-70 -9
t-46.5 -37t-28.5 -79t-8 -126.5t6 -121.5t17 -74.5t31 -43.5t42.5 -20.5z" />
    <glyph glyph-name="P" unicode="P" horiz-adv-x="604" 
d="M97 698q141 14 245 14t157 -61t53 -179q0 -144 -72 -200q-62 -50 -155 -50l-111 5v-227h-117l4 325zM214 331q58 -10 121 -10t79 28.5t16 131t-28 123.5q-18 15 -78 15t-110 -8v-280z" />
    <glyph glyph-name="Q" unicode="Q" horiz-adv-x="695" 
d="M422 -4q-40 -9 -92.5 -9t-98.5 16t-85.5 55t-60.5 113t-21 180t21 179.5t61 111.5t87 54t108 16t107 -16t86 -54q82 -78 82 -289.5t-95 -301.5v-6l138 -42l-38 -100zM283.5 96.5q22.5 -5.5 68.5 -5.5t76 17q66 37 66 240q0 84 -8 135t-28.5 79t-46.5 37t-70 9t-70.5 -9
t-47 -37t-28.5 -79t-8 -126.5t6 -121.5t17 -74.5t31 -43.5t42.5 -20.5z" />
    <glyph glyph-name="R" unicode="R" horiz-adv-x="667" 
d="M340 712q241 0 241 -225q0 -166 -146 -207v-5l163 -275h-137l-136 264l-110 4v-268h-118l5 328l-3 370q112 14 241 14zM214 368q79 -9 138.5 -9t83 29.5t23.5 106t-24 103.5q-21 22 -86.5 22t-133.5 -9z" />
    <glyph glyph-name="S" unicode="S" 
d="M283 92q88 0 88 96q0 41 -33 69t-91.5 54.5t-67 31l-30.5 16.5t-30.5 20l-24 23.5t-21.5 31.5q-17 43 -17 84q0 85 58.5 139.5t166.5 54.5q79 0 156 -22l27 -7l-19 -98q-109 21 -166.5 21t-79.5 -18.5t-22 -59t27.5 -63t64 -40l59 -27.5l34 -15.5t31.5 -17t31 -21t26 -25
t22 -31.5q19 -39 19 -84q0 -97 -63 -157t-165 -60q-52 0 -108.5 15t-86.5 30l-31 16q9 27 15 43.5l10 28t9 24.5q115 -52 212 -52z" />
    <glyph glyph-name="T" unicode="T" horiz-adv-x="498" 
d="M-4 699h501v-103l-195 3l2 -599h-116l3 599l-195 -3v103z" />
    <glyph glyph-name="U" unicode="U" horiz-adv-x="684" 
d="M97 305v394h117v-367q0 -109 11.5 -159.5t36.5 -66.5t80.5 -15.5t80 16t36 65.5t11.5 160v367h117v-385q0 -190 -64 -260q-33 -37 -76 -52t-105 -15q-124 0 -184.5 70t-60.5 248z" />
    <glyph glyph-name="V" unicode="V" horiz-adv-x="569" 
d="M207 0l-191 699h123l138 -596h6l139 596h124l-193 -699h-146z" />
    <glyph glyph-name="W" unicode="W" horiz-adv-x="785" 
d="M129 0l-101 699h117l64 -585h6l98 417h146l98 -417h6l63 585h118l-103 -699h-151l-101 428h-6l-100 -428h-154z" />
    <glyph glyph-name="X" unicode="X" horiz-adv-x="579" 
d="M5 0l206 350l-199 349h133l137 -275h6l138 275h133l-199 -351l207 -348h-134l-143 271h-5l-146 -271h-134z" />
    <glyph glyph-name="Y" unicode="Y" horiz-adv-x="547" 
d="M210 0l3 256l-210 443h127l137 -347h5l138 347h127l-210 -443l2 -256h-119z" />
    <glyph glyph-name="Z" unicode="Z" horiz-adv-x="557" 
d="M29 0v98l351 498v7l-330 -7v103h466v-98l-346 -499v-5l350 5v-102h-491z" />
    <glyph glyph-name="bracketleft" unicode="[" horiz-adv-x="330" 
d="M98 -124v911h198v-90l-91 3v-737l91 2v-89h-198z" />
    <glyph glyph-name="backslash" unicode="\" horiz-adv-x="464" 
d="M352 -98l-158 383l-179 414h114l152 -374l184 -423h-113z" />
    <glyph glyph-name="bracketright" unicode="]" horiz-adv-x="330" 
d="M33 -124v89l93 -2v737l-93 -3v90h198v-911h-198z" />
    <glyph glyph-name="asciicircum" unicode="^" horiz-adv-x="520" 
d="M50 325l150 375h120l149 -375l-106 -11l-100 292h-6l-100 -292z" />
    <glyph glyph-name="underscore" unicode="_" horiz-adv-x="556" 
d="M13 -163v82h530v-82h-530z" />
    <glyph glyph-name="grave" unicode="`" horiz-adv-x="623" 
d="M162 721l32 92l262 -93l-22 -68z" />
    <glyph glyph-name="a" unicode="a" horiz-adv-x="588" 
d="M216 -13q-77 0 -123.5 48.5t-46.5 145t62.5 140.5t180.5 44l96 -1q0 97 -15.5 117.5t-60.5 20.5t-100.5 -11t-117.5 -34l-31 85l37.5 15.5t87.5 25t117 15.5q199 0 199 -216v-382h-74l-16 63h-5q-11 -9 -29.5 -21.5t-69 -33.5t-91.5 -21zM385 270q-41 6 -111 6t-87 -17
q-22 -20 -22 -76.5t14.5 -77t47 -20.5t72 11.5t86.5 33.5v140z" />
    <glyph glyph-name="b" unicode="b" horiz-adv-x="599" 
d="M82 757h116v-178q84 19 141 19q198 0 198 -297q0 -314 -217 -314q-46 0 -117 12t-121 29v729zM198 97q58 -14 110 -14t68 15q41 34 41 220q0 96 -12 142q-5 20 -19 28.5t-25 10t-38 1.5q-55 0 -125 -20v-383z" />
    <glyph glyph-name="c" unicode="c" horiz-adv-x="534" 
d="M467 129q11 -34 34 -85q-9 -6 -24.5 -15.5t-65.5 -25.5t-102 -16q-115 0 -181 75t-66 232q0 174 80 243q72 61 190 61q78 0 154 -19l-13 -91q-109 14 -167 14t-82 -24q-42 -45 -42 -192t57 -189q21 -15 54.5 -15t76.5 12t97 35z" />
    <glyph glyph-name="d" unicode="d" horiz-adv-x="604" 
d="M255 -13q-87 0 -140 74.5t-53 222.5q0 206 98 278q51 36 123 36q49 0 123 -19v178h116v-757h-76l-13 59h-6q-29 -22 -48 -34t-54.5 -25t-69.5 -13zM406 476q-61 25 -117.5 25t-73.5 -21q-33 -42 -33 -195.5t38 -185.5q13 -12 44 -12q58 0 121 33l21 11v345z" />
    <glyph glyph-name="e" unicode="e" horiz-adv-x="589" 
d="M312 -13q-250 0 -250 305.5t248 305.5q111 0 166.5 -64t55.5 -212v-72h-349q0 -111 38 -146q25 -22 67 -22q81 0 171 30l31 11l28 -88q-98 -48 -206 -48zM414 372q0 6 -1 26.5t-2 25t-3.5 20t-6 19t-9 13.5t-12.5 12.5t-16 7.5q-14 7 -53.5 7t-65 -9t-39 -32t-17.5 -50
t-5 -75l230 5v30z" />
    <glyph glyph-name="f" unicode="f" horiz-adv-x="361" 
d="M109 0v466h-67v71l67 14q6 120 55.5 169.5t137.5 49.5l72 -3l-8 -94q-50 3 -76 3t-38 -7q-27 -16 -27 -116h129v-90h-129v-463h-116z" />
    <glyph glyph-name="g" unicode="g" horiz-adv-x="545" 
d="M66 -59q174 -26 255.5 -26t81.5 25q0 16 -26.5 32t-130.5 59.5t-104 45.5l41 115q-144 47 -144 192q0 113 69.5 163.5t181.5 50.5q62 0 230 -12v-70l-64 -10q30 -66 30 -125q0 -88 -61.5 -143t-169.5 -56q-4 -39 -4 -44t92.5 -43t125 -66.5t32.5 -72.5q0 -64 -64.5 -99.5
t-170.5 -35.5q-97 0 -185 22l-28 7zM172.5 481q-28.5 -25 -28.5 -92t26.5 -91t90 -24t88.5 23.5t25 87.5t-7 87.5t-10 25.5q-6 4 -85 8q-71 0 -99.5 -25z" />
    <glyph glyph-name="h" unicode="h" horiz-adv-x="607" 
d="M77 0v757h116v-209q111 51 189 51t111.5 -53.5t33.5 -159.5v-386h-116v358q0 85 -14 111t-56 26q-26 0 -63 -9.5t-85 -29.5v-456h-116z" />
    <glyph glyph-name="i" unicode="i" horiz-adv-x="310" 
d="M97 0v585h116v-585h-116zM88 663v94h134v-94h-134z" />
    <glyph glyph-name="j" unicode="j" horiz-adv-x="328" 
d="M-12 -74q39 -6 73 -6t44 23.5t10 116.5v525h116v-524q0 -127 -48 -183t-126 -56l-82 7zM106 663v94h134v-94h-134z" />
    <glyph glyph-name="k" unicode="k" horiz-adv-x="571" 
d="M198 753v-753h-116l5 321l-5 432h116zM438 0l-239 314l223 268h148l-245 -263v-5l263 -314h-150z" />
    <glyph glyph-name="l" unicode="l" horiz-adv-x="280" 
d="M82 0v757h116v-757h-116z" />
    <glyph glyph-name="m" unicode="m" horiz-adv-x="941" 
d="M93 0v585h76l13 -58h5q121 72 207 72t118 -76q39 24 61 36.5t63 26t78 13.5q81 0 114 -55.5t33 -159.5v-384h-116v356q0 83 -11.5 110.5t-51 27.5t-83 -17t-68.5 -33q4 -40 4 -62v-382h-116v358q0 111 -26 128q-12 8 -37 8q-62 0 -147 -47v-447h-116z" />
    <glyph glyph-name="n" unicode="n" horiz-adv-x="620" 
d="M93 0v585h76l13 -58h5q123 71 207.5 71t115 -55t30.5 -157v-386h-116v357q0 89 -11.5 112.5t-50.5 23.5t-83.5 -16t-69.5 -32v-445h-116z" />
    <glyph glyph-name="o" unicode="o" horiz-adv-x="598" 
d="M482 64.5q-54 -77.5 -182.5 -77.5t-183 77.5t-54.5 227.5t54.5 228t183 78t182.5 -78t54 -228t-54 -227.5zM300 79q69 0 93 41.5t24 172t-24 171.5t-93 41t-93.5 -41t-24.5 -171.5t24.5 -172t93.5 -41.5z" />
    <glyph glyph-name="p" unicode="p" horiz-adv-x="605" 
d="M82 -166v751h76l14 -60h5q2 1 17.5 12t24 16.5t27 15.5t33.5 15q42 14 77 14q87 0 137 -72.5t50 -222.5q0 -316 -228 -316q-43 0 -117 12v-165h-116zM198 102q68 -18 116 -18t67 14q42 33 42 215q0 67 -3.5 105t-15 55t-22 20t-38 3t-65 -12t-81.5 -35v-347z" />
    <glyph glyph-name="q" unicode="q" horiz-adv-x="600" 
d="M402 -166v181q-65 -28 -119.5 -28t-89 14.5t-65.5 47.5q-66 70 -66 242.5t56.5 239.5t172.5 67q46 0 102.5 -9t124.5 -27v-728h-116zM402 487q-56 14 -114.5 14t-76.5 -18q-29 -34 -29 -181q0 -172 35 -201q18 -15 51 -15q62 0 134 24v377z" />
    <glyph glyph-name="r" unicode="r" horiz-adv-x="416" 
d="M347 598q29 0 53 -8l-9 -104q-25 2 -45 2q-75 0 -137 -44v-444h-116v585h73q9 -47 15 -61h6q36 29 83.5 51.5t76.5 22.5z" />
    <glyph glyph-name="s" unicode="s" horiz-adv-x="512" 
d="M270 83q39 0 59 18t20 58t-26 57.5t-61 28t-39 12t-23 7.5t-36 12t-43.5 20t-38.5 30q-33 40 -33 100q0 79 50.5 125.5t147 46.5t189.5 -32l-18 -92q-104 25 -166.5 25t-77 -16.5t-14.5 -46.5t28.5 -48.5t81 -34t63.5 -19t34 -12t32.5 -15.5t24.5 -19.5t22 -27.5
q16 -36 16 -80q0 -88 -52.5 -140.5t-148.5 -52.5q-48 0 -101.5 13t-112.5 39l28 94q117 -50 195 -50z" />
    <glyph glyph-name="t" unicode="t" horiz-adv-x="384" 
d="M104 190v275h-67v72l72 14l23 138h89v-136h117v-90h-118v-278q0 -67 8.5 -82.5t44.5 -15.5l64 3v-93q-34 -8 -79 -8q-79 0 -116.5 41.5t-37.5 159.5z" />
    <glyph glyph-name="u" unicode="u" horiz-adv-x="619" 
d="M80 199v386h116v-363q0 -96 13 -115q14 -17 51 -17q60 0 150 48v447h116v-585h-76l-14 58h-5q-1 -1 -22.5 -13t-30 -16l-30.5 -14.5t-37 -14.5q-42 -13 -76 -13q-155 0 -155 212z" />
    <glyph glyph-name="v" unicode="v" horiz-adv-x="495" 
d="M176 0l-170 585h120l117 -488h6l119 488h120l-173 -585h-139z" />
    <glyph glyph-name="w" unicode="w" horiz-adv-x="751" 
d="M130 0l-117 585h116l78 -507h5l86 428h151l86 -428h6l76 507h117l-117 -585h-156l-85 430h-6l-85 -430h-155z" />
    <glyph glyph-name="x" unicode="x" horiz-adv-x="528" 
d="M9 0l182 306l-176 279h128l115 -215h6l113 215h128l-176 -280l182 -305h-132l-117 236h-6l-115 -236h-132z" />
    <glyph glyph-name="y" unicode="y" horiz-adv-x="499" 
d="M117 -166l82 220l-204 531h129l124 -412h5l122 412h122l-205 -551l-55 -200h-120z" />
    <glyph glyph-name="z" unicode="z" horiz-adv-x="488" 
d="M26 0v84l293 405v6l-280 -7v97h415v-84l-292 -406v-6l298 7v-96h-434z" />
    <glyph glyph-name="braceleft" unicode="{" horiz-adv-x="443" 
d="M171 70v120q0 59 -22.5 77t-100.5 30v87q76 11 99.5 30t23.5 77v97q0 95 42 146.5t138 51.5l65 -3l-5 -85q-53 3 -77.5 3t-36 -21.5t-11.5 -93.5v-96q0 -77 -35 -112q-27 -27 -55 -35v-6q90 -33 90 -150v-106q0 -69 10 -93.5t40 -24.5l75 3l5 -87q-43 -2 -65 -2
q-180 0 -180 193z" />
    <glyph glyph-name="bar" unicode="|" horiz-adv-x="284" 
d="M95 -87v849h94v-849h-94z" />
    <glyph glyph-name="braceright" unicode="}" horiz-adv-x="443" 
d="M31 -34q34 -3 69.5 -3t45.5 24.5t10 93.5v106q0 117 90 150v6q-28 8 -50 29q-40 41 -40 118v96q0 72 -11.5 93.5t-42.5 21.5l-71 -3l-5 85q43 3 65 3q96 0 138 -51.5t42 -146.5v-97q0 -58 23.5 -77t99.5 -30v-87q-78 -12 -100.5 -30t-22.5 -77v-120q0 -193 -180 -193
l-65 2z" />
    <glyph glyph-name="asciitilde" unicode="~" horiz-adv-x="536" 
d="M142 372q39 0 131 -34t122.5 -34t79.5 28l35 -61q-17 -25 -48.5 -46t-66 -21t-130 34t-128 34t-81.5 -34l-37 62q66 72 123 72z" />
    <glyph glyph-name="exclamdown" unicode="&#xa1;" horiz-adv-x="283" 
d="M80 -113l15 502h96l15 -502h-126zM74 475v110h138v-110h-138z" />
    <glyph glyph-name="cent" unicode="&#xa2;" horiz-adv-x="534" 
d="M263 -117v108q-201 28 -201 297.5t201 303.5v102h96v-97q60 -2 127 -18l-13 -91q-109 14 -158 14q-80 0 -106.5 -43.5t-26.5 -181.5t57 -180q21 -15 54.5 -15t76.5 12t97 35l34 -85q-57 -42 -142 -53v-108h-96z" />
    <glyph glyph-name="sterling" unicode="&#xa3;" horiz-adv-x="581" 
d="M64 0v100h90v237h-90v87h91q6 159 69.5 223.5t171.5 64.5q66 0 138 -20l-12 -94q-100 14 -137 14q-67 0 -89 -34.5t-25 -153.5h183v-87h-184v-236l249 2v-103h-455z" />
    <glyph glyph-name="currency" unicode="&#xa4;" horiz-adv-x="656" 
d="M126 214q-38 59 -38 135t39 138l-58 59l66 67l60 -60q65 40 136.5 40t133.5 -39l61 59l66 -66l-59 -58q42 -61 42 -138.5t-40 -138.5l59 -58l-67 -66l-59 58q-65 -40 -137 -40t-139 42l-59 -60l-66 67zM226 236.5q39 -36.5 110 -36.5t105.5 35t34.5 113t-38.5 114.5
t-105.5 36.5t-106 -36.5t-39 -113t39 -113z" />
    <glyph glyph-name="yen" unicode="&#xa5;" horiz-adv-x="572" 
d="M49 277v81l132 -2l-164 343h127l138 -341h6l136 341h127l-164 -343l132 2v-81h-470zM49 138v81h470v-81h-177v-138h-117v138h-176z" />
    <glyph glyph-name="brokenbar" unicode="&#xa6;" horiz-adv-x="284" 
d="M95 403v359h94v-359h-94zM95 -87v359h94v-359h-94z" />
    <glyph glyph-name="section" unicode="&#xa7;" horiz-adv-x="554" 
d="M279 6q44 0 60 12q20 14 20 57q0 39 -46 60q-35 16 -78 27.5t-84.5 27.5t-70 50t-28.5 86q0 75 63 122q-42 39 -42 108t53 112t147 43t169 -26l-19 -96q-84 25 -164 25q-38 0 -56.5 -12.5t-18.5 -46t33 -54.5t80 -33.5t94 -28t80 -49.5t33 -85q0 -69 -65 -124
q33 -37 33 -96q0 -84 -59.5 -131t-147.5 -47q-51 0 -105 13.5t-82 27.5l-28 13l31 96q113 -51 198 -51zM359 230q34 34 34 60.5t-22.5 41t-55.5 24.5t-57 18q-44 13 -65 22q-30 -28 -30 -66q0 -31 36 -47q22 -10 77 -26.5t83 -26.5z" />
    <glyph glyph-name="dieresis" unicode="&#xa8;" horiz-adv-x="588" 
d="M127 677v93h124v-93h-124zM338 677v93h123v-93h-123z" />
    <glyph glyph-name="copyright" unicode="&#xa9;" horiz-adv-x="839" 
d="M674 64q-100 -101 -255.5 -101t-255 101t-99.5 256t102.5 257t255 102t252.5 -101t100 -257t-100 -257zM217.5 116.5q72.5 -74.5 201 -74.5t201.5 75t73 204t-73 204t-199 75t-201 -75.5t-75 -204.5t72.5 -203.5zM551 141q-52 -35 -132.5 -35t-129 51t-48.5 160
q0 133 57 180q49 41 130 41q22 0 57.5 -5.5t49.5 -11.5l-10 -79q-59 9 -95.5 9t-51.5 -7q-32 -16 -32 -127q0 -76 16.5 -99.5t43.5 -23.5q56 0 123 25z" />
    <glyph glyph-name="ordfeminine" unicode="&#xaa;" horiz-adv-x="435" 
d="M283 336q-69 -47 -125 -47q-116 0 -116 135q0 65 46 96q35 24 116 28q27 2 71 2q0 49 -12 63.5t-47 14.5q-64 0 -121 -22l-19 -8l-21 75q89 34 163 34q146 0 146 -150v-259h-63l-14 38h-4zM275 474q-25 2 -69 2t-58.5 -12t-14.5 -41.5t11.5 -41.5t33.5 -12q39 0 97 28v77
z" />
    <glyph glyph-name="guillemotleft" unicode="&#xab;" horiz-adv-x="521" 
d="M182 82l-150 255l150 255l86 -51l-123 -201v-6l123 -201zM405 83l-149 254l149 253l85 -51l-121 -199v-6l121 -199z" />
    <glyph glyph-name="logicalnot" unicode="&#xac;" horiz-adv-x="598" 
d="M20 243v100h541v-225h-102v125h-439z" />
    <glyph glyph-name="uni00AD" unicode="&#xad;" horiz-adv-x="348" 
d="M54 259v99h242v-99h-242z" />
    <glyph glyph-name="registered" unicode="&#xae;" horiz-adv-x="839" 
d="M674 64q-100 -101 -255.5 -101t-255 101t-99.5 256t102.5 257t255 102t252.5 -101t100 -257t-100 -257zM217.5 116.5q72.5 -74.5 201 -74.5t201.5 75t73 204t-73 204t-199 75t-201 -75.5t-75 -204.5t72.5 -203.5zM414 261l-53 1v-143h-92l3 191l-2 213q84 8 155 8
q151 0 151 -132q0 -52 -21.5 -84t-54.5 -44v-3l80 -149h-106zM427 453l-65 -4l-1 -107q30 -3 63 -3t44 13.5t11 45t-11 43.5t-41 12z" />
    <glyph glyph-name="macron" unicode="&#xaf;" horiz-adv-x="586" 
d="M137 680v77h318v-77h-318z" />
    <glyph glyph-name="degree" unicode="&#xb0;" horiz-adv-x="354" 
d="M177 399q-66 0 -112.5 39.5t-46.5 120.5t46 119.5t113 38.5t113 -38.5t46 -119.5t-46.5 -120.5t-112.5 -39.5zM177 488q67 0 67 70t-67 70t-67 -70t67 -70z" />
    <glyph glyph-name="plusminus" unicode="&#xb1;" horiz-adv-x="580" 
d="M44 9v99h491v-99h-491zM44 327v98h195v152h101v-152h195v-98h-195v-158h-101v158h-195z" />
    <glyph glyph-name="twosuperior" unicode="&#xb2;" horiz-adv-x="394" 
d="M59 298v63q64 70 102 116q73 85 73 117.5t-32 32.5q-51 0 -120 -40l-34 74q23 16 65.5 31.5t90.5 15.5t83.5 -29.5t35.5 -78.5q0 -71 -124 -208l-14 -16v-4l148 6v-80h-274z" />
    <glyph glyph-name="threesuperior" unicode="&#xb3;" horiz-adv-x="373" 
d="M62 395q71 -25 106.5 -25t45 11.5t9.5 40t-15.5 39.5t-53.5 11h-52v70q74 5 93 13t19 32t-8 31q-9 10 -59 10q-43 -2 -78 -7l-8 76q62 11 107 11q137 0 137 -109q0 -52 -38 -75q-5 -3 -16 -8v-4q66 -18 66 -94q0 -58 -31.5 -93t-102.5 -35q-33 0 -69 8t-74 23z" />
    <glyph glyph-name="acute" unicode="&#xb4;" horiz-adv-x="623" 
d="M189 652l-22 68l262 93l32 -92z" />
    <glyph glyph-name="mu" unicode="&#xb5;" horiz-adv-x="620" 
d="M80 -166v751h116v-352q0 -105 13 -124q16 -19 52.5 -19t80.5 16.5t68 31.5v447h116v-585h-75l-14 58h-6q-125 -71 -191 -71q-34 0 -58 13l-4 -4l10 -162h-108z" />
    <glyph glyph-name="mu" unicode="&#x3bc;" horiz-adv-x="620" 
d="M80 -166v751h116v-352q0 -105 13 -124q16 -19 52.5 -19t80.5 16.5t68 31.5v447h116v-585h-75l-14 58h-6q-125 -71 -191 -71q-34 0 -58 13l-4 -4l10 -162h-108z" />
    <glyph glyph-name="paragraph" unicode="&#xb6;" horiz-adv-x="697" 
d="M263 -164v348q-109 3 -165.5 62t-56.5 198t60.5 197t177.5 58h328v-863h-116v762h-112v-762h-116z" />
    <glyph glyph-name="periodcentered" unicode="&#xb7;" horiz-adv-x="328" 
d="M111 287q-23 19 -23 59t22.5 57.5t54.5 17.5q77 0 77 -76q0 -39 -22.5 -58t-54 -19t-54.5 19z" />
    <glyph glyph-name="cedilla" unicode="&#xb8;" horiz-adv-x="504" 
d="M191 -94q45 -5 70.5 -5t36 6t10.5 29.5t-13 75.5l70 11q20 -55 20 -100t-31 -73.5t-83 -28.5q-31 0 -80 9v76z" />
    <glyph glyph-name="onesuperior" unicode="&#xb9;" horiz-adv-x="392" 
d="M67 298v80h100v233h-4l-81 -64l-46 64l140 96l82 -6v-323h87v-80h-278z" />
    <glyph glyph-name="ordmasculine" unicode="&#xba;" horiz-adv-x="371" 
d="M317.5 342q-38.5 -53 -131.5 -53t-131.5 53t-38.5 156t38.5 156t131.5 53t131.5 -53t38.5 -156t-38.5 -156zM127 396q16 -25 58.5 -25t59 25t16.5 102.5t-16.5 102.5t-59 25t-58.5 -25t-16 -102.5t16 -102.5z" />
    <glyph glyph-name="guillemotright" unicode="&#xbb;" horiz-adv-x="521" 
d="M253 133l123 201v6l-123 201l86 51l150 -255l-150 -255zM31 135l122 199v6l-122 199l86 51l149 -253l-149 -254z" />
    <glyph glyph-name="onequarter" unicode="&#xbc;" horiz-adv-x="953" 
d="M260 -9l206 402l157 340h105l-190 -386l-171 -356h-107zM585 79v57q0 9 2 15l99 267l81 -9l-94 -254l100 3l12 147h74v-147l40 1v-80h-40v-79h-88l1 79h-187zM67 298v80h100v233h-4l-81 -64l-46 64l140 96l82 -6v-323h87v-80h-278z" />
    <glyph glyph-name="onehalf" unicode="&#xbd;" horiz-adv-x="967" 
d="M261 -9l205 402l157 340h106l-191 -386l-170 -356h-107zM67 298v80h100v233h-4l-81 -64l-46 64l140 96l82 -6v-323h87v-80h-278zM631 0v63q64 70 102 116q73 85 73 117.5t-32 32.5q-51 0 -120 -40l-34 74q23 16 65.5 31.5t90.5 15.5t83.5 -29.5t35.5 -78.5
q0 -71 -124 -208l-14 -16v-4l148 6v-80h-274z" />
    <glyph glyph-name="threequarters" unicode="&#xbe;" horiz-adv-x="905" 
d="M217 -9l206 402l157 340h105l-190 -386l-171 -356h-107zM62 395q70 -25 105.5 -25t45 11.5t9.5 40t-15.5 39.5t-53.5 11h-52v70q74 5 93 13t19 32t-7 31q-10 10 -60 10q-44 -2 -78 -7l-8 76q62 11 107 11q137 0 137 -109q0 -54 -38 -77q-6 -3 -16 -7v-4q66 -18 66 -93
q0 -58 -31.5 -93t-102.5 -35q-62 0 -124 24l-19 7zM537 79v57q0 9 2 15l98 267l82 -9l-94 -254l99 3l13 147h74v-147l40 1v-80h-40v-79h-89l2 79h-187z" />
    <glyph glyph-name="questiondown" unicode="&#xbf;" horiz-adv-x="481" 
d="M419 27q13 -26 39 -91q-12 -7 -32 -17.5t-77.5 -27.5t-107.5 -17q-96 0 -157.5 53t-61.5 136q0 84 59 140q28 27 63.5 52t50.5 38t28.5 38.5t15.5 57.5h103v-10q0 -52 -19 -92.5t-48.5 -64.5t-59.5 -45q-72 -50 -72 -118q0 -48 32 -69q18 -12 56 -12t84.5 12t103.5 37z
M221 476v109h138v-109h-138z" />
    <glyph glyph-name="Agrave" unicode="&#xc0;" 
d="M-3 0l199 699h142l198 -699h-121l-44 172h-208l-45 -172h-121zM185 270h164l-79 326h-6zM128 798l26 88l258 -77l-18 -66z" />
    <glyph glyph-name="Aacute" unicode="&#xc1;" 
d="M-3 0l199 699h142l198 -699h-121l-44 172h-208l-45 -172h-121zM185 270h164l-79 326h-6zM157 742l-19 66l256 79l28 -89z" />
    <glyph glyph-name="Acircumflex" unicode="&#xc2;" 
d="M-3 0l199 699h142l198 -699h-121l-44 172h-208l-45 -172h-121zM185 270h164l-79 326h-6zM126 738l-30 48l141 98h61l142 -98l-30 -48l-139 60h-7q-8 -4 -138 -60z" />
    <glyph glyph-name="Atilde" unicode="&#xc3;" 
d="M-3 0l199 699h142l198 -699h-121l-44 172h-208l-45 -172h-121zM185 270h164l-79 326h-6zM165 870q29 0 110 -22.5t88 -22.5q13 0 29 42l63 -9q-1 -112 -82 -112q-29 0 -110.5 23.5t-88.5 23.5t-14.5 -10.5t-15.5 -32.5l-62 8q0 112 83 112z" />
    <glyph glyph-name="Adieresis" unicode="&#xc4;" 
d="M-3 0l199 699h142l198 -699h-121l-44 172h-208l-45 -172h-121zM185 270h164l-79 326h-6zM103 764v93h120v-93h-120zM316 764v93h120v-93h-120z" />
    <glyph glyph-name="Aring" unicode="&#xc5;" 
d="M-3 0l199 699h142l198 -699h-121l-44 172h-208l-45 -172h-121zM185 270h164l-79 326h-6zM201 747.5q-27 20.5 -27 67.5t27 67.5t67.5 20.5t67 -20.5t26.5 -67.5t-27 -67.5t-67 -20.5t-67 20.5zM240.5 841.5q-8.5 -6.5 -8.5 -26.5t8.5 -27t28 -7t27 6.5t7.5 27t-7.5 27
t-27 6.5t-28 -6.5z" />
    <glyph glyph-name="AE" unicode="&#xc6;" horiz-adv-x="808" 
d="M747 699v-103l-262 3l-4 -195h242v-99h-242l4 -205l262 2v-102h-377v171h-183l-73 -171h-121l308 699h446zM370 270v322h-18l-135 -322h153z" />
    <glyph glyph-name="Ccedilla" unicode="&#xc7;" horiz-adv-x="604" 
d="M216 -94q44 -5 70 -5t36 6t10 29t-7 51q-261 0 -261 355q0 253 112 328q36 24 75 33t115.5 9t158.5 -20l-13 -98q-94 14 -173.5 14t-101.5 -23q-49 -51 -49 -246q0 -91 17 -151.5t40.5 -81t69 -20.5t95.5 14t108 41l36 -89q-62 -42 -155 -58q10 -40 10 -68
q0 -48 -31 -76.5t-83 -28.5q-29 0 -79 9v76z" />
    <glyph glyph-name="Egrave" unicode="&#xc8;" horiz-adv-x="535" 
d="M97 0v699h378v-103l-261 3l-5 -195h241v-99h-241l5 -205l261 2v-102h-378zM136 798l26 88l259 -77l-19 -66z" />
    <glyph glyph-name="Eacute" unicode="&#xc9;" horiz-adv-x="535" 
d="M97 0v699h378v-103l-261 3l-5 -195h241v-99h-241l5 -205l261 2v-102h-378zM166 742l-19 66l256 79l28 -89z" />
    <glyph glyph-name="Ecircumflex" unicode="&#xca;" horiz-adv-x="535" 
d="M97 0v699h378v-103l-261 3l-5 -195h241v-99h-241l5 -205l261 2v-102h-378zM280 798l-139 -60l-30 48l142 98h61l141 -98l-30 -48l-138 60h-7z" />
    <glyph glyph-name="Edieresis" unicode="&#xcb;" horiz-adv-x="535" 
d="M97 0v699h378v-103l-261 3l-5 -195h241v-99h-241l5 -205l261 2v-102h-378zM122 764v93h121v-93h-121zM335 764v93h120v-93h-120z" />
    <glyph glyph-name="Igrave" unicode="&#xcc;" horiz-adv-x="313" 
d="M-3 797l26 89l245 -77l-19 -66zM215 0l-118 -1l4 322l-4 378h118l-4 -310z" />
    <glyph glyph-name="Iacute" unicode="&#xcd;" horiz-adv-x="313" 
d="M63 742l-18 67l243 78l28 -90zM215 0l-118 -1l4 322l-4 378h118l-4 -310z" />
    <glyph glyph-name="Icircumflex" unicode="&#xce;" horiz-adv-x="313" 
d="M25 741l-29 51l130 92h61l129 -92l-29 -51l-127 57h-7zM215 0l-118 -1l4 322l-4 378h118l-4 -310z" />
    <glyph glyph-name="Idieresis" unicode="&#xcf;" horiz-adv-x="313" 
d="M3 764v93h119v-93h-119zM191 764v93h119v-93h-119zM215 0l-118 -1l4 322l-4 378h118l-4 -310z" />
    <glyph glyph-name="Eth" unicode="&#xd0;" horiz-adv-x="667" 
d="M110 311h-66v91h66v297q149 13 220 13t119 -19.5t77 -51t46 -78.5q31 -82 31 -205q0 -371 -277 -371q-47 0 -216 13v311zM226 311v-216q54 -7 97 -7q77 0 102 23q51 49 51 246t-49 235q-21 19 -88 19l-113 -7v-202h114v-91h-114z" />
    <glyph glyph-name="Ntilde" unicode="&#xd1;" horiz-adv-x="699" 
d="M97 0v699h153l251 -564h5l-14 564h111v-699h-153l-250 563h-5l13 -563h-111zM250 870q29 0 109.5 -22.5t87.5 -22.5q13 0 29 42l63 -9q-1 -112 -82 -112q-29 0 -110.5 23.5t-88 23.5t-14 -10.5t-15.5 -32.5l-63 8q1 112 84 112z" />
    <glyph glyph-name="Ograve" unicode="&#xd2;" horiz-adv-x="681" 
d="M340 -13q-48 0 -87 9.5t-75 34t-60 64.5q-54 87 -54 256q0 213 82 291q40 38 86.5 54t107.5 16t107.5 -16t86.5 -54q82 -78 82 -291q0 -243 -114 -321q-64 -43 -162 -43zM283.5 96.5q22.5 -5.5 68.5 -5.5t76 17q66 37 66 240q0 84 -8 135t-28.5 79t-47 37t-70.5 9t-70 -9
t-46.5 -37t-28.5 -79t-8 -126.5t6 -121.5t17 -74.5t31 -43.5t42.5 -20.5zM208 798l26 88l259 -77l-19 -66z" />
    <glyph glyph-name="Oacute" unicode="&#xd3;" horiz-adv-x="681" 
d="M340 -13q-48 0 -87 9.5t-75 34t-60 64.5q-54 87 -54 256q0 213 82 291q40 38 86.5 54t107.5 16t107.5 -16t86.5 -54q82 -78 82 -291q0 -243 -114 -321q-64 -43 -162 -43zM283.5 96.5q22.5 -5.5 68.5 -5.5t76 17q66 37 66 240q0 84 -8 135t-28.5 79t-47 37t-70.5 9t-70 -9
t-46.5 -37t-28.5 -79t-8 -126.5t6 -121.5t17 -74.5t31 -43.5t42.5 -20.5zM237 742l-19 66l256 79l28 -89z" />
    <glyph glyph-name="Ocircumflex" unicode="&#xd4;" horiz-adv-x="681" 
d="M340 -13q-48 0 -87 9.5t-75 34t-60 64.5q-54 87 -54 256q0 213 82 291q40 38 86.5 54t107.5 16t107.5 -16t86.5 -54q82 -78 82 -291q0 -243 -114 -321q-64 -43 -162 -43zM283.5 96.5q22.5 -5.5 68.5 -5.5t76 17q66 37 66 240q0 84 -8 135t-28.5 79t-47 37t-70.5 9t-70 -9
t-46.5 -37t-28.5 -79t-8 -126.5t6 -121.5t17 -74.5t31 -43.5t42.5 -20.5zM202 738l-31 48l142 98h61l142 -98l-30 -48l-139 60h-7z" />
    <glyph glyph-name="Otilde" unicode="&#xd5;" horiz-adv-x="681" 
d="M340 -13q-48 0 -87 9.5t-75 34t-60 64.5q-54 87 -54 256q0 213 82 291q40 38 86.5 54t107.5 16t107.5 -16t86.5 -54q82 -78 82 -291q0 -243 -114 -321q-64 -43 -162 -43zM283.5 96.5q22.5 -5.5 68.5 -5.5t76 17q66 37 66 240q0 84 -8 135t-28.5 79t-47 37t-70.5 9t-70 -9
t-46.5 -37t-28.5 -79t-8 -126.5t6 -121.5t17 -74.5t31 -43.5t42.5 -20.5zM238 870q30 0 110 -22.5t88 -22.5q13 0 29 42l63 -9q-1 -112 -82 -112q-29 0 -110.5 23.5t-88.5 23.5t-14.5 -10.5t-15.5 -32.5l-63 8q1 112 84 112z" />
    <glyph glyph-name="Odieresis" unicode="&#xd6;" horiz-adv-x="681" 
d="M340 -13q-48 0 -87 9.5t-75 34t-60 64.5q-54 87 -54 256q0 213 82 291q40 38 86.5 54t107.5 16t107.5 -16t86.5 -54q82 -78 82 -291q0 -243 -114 -321q-64 -43 -162 -43zM283.5 96.5q22.5 -5.5 68.5 -5.5t76 17q66 37 66 240q0 84 -8 135t-28.5 79t-47 37t-70.5 9t-70 -9
t-46.5 -37t-28.5 -79t-8 -126.5t6 -121.5t17 -74.5t31 -43.5t42.5 -20.5zM176 764v93h121v-93h-121zM389 764v93h120v-93h-120z" />
    <glyph glyph-name="multiply" unicode="&#xd7;" horiz-adv-x="587" 
d="M117 48l-70 71l176 176l-175 175l69 70l175 -176l178 178l70 -71l-177 -177l175 -175l-69 -70l-175 175z" />
    <glyph glyph-name="Oslash" unicode="&#xd8;" horiz-adv-x="681" 
d="M146 642q40 38 86.5 54t109 16t112.5 -20l16 37h96l-39 -82q89 -84 89 -296q0 -243 -114 -321q-64 -43 -162 -43q-65 0 -112 18l-20 -44h-97l43 88q-90 87 -90 301t82 292zM271 100q30 -9 78.5 -9t78.5 17q66 37 66 240q0 128 -22 184l-97 -204zM411 597q-26 11 -77.5 11
t-81.5 -18q-65 -37 -65 -242q0 -126 23 -183l79 162z" />
    <glyph glyph-name="Ugrave" unicode="&#xd9;" horiz-adv-x="684" 
d="M97 305v394h117v-367q0 -109 11.5 -159.5t36.5 -66.5t80.5 -15.5t80 16t36 65.5t11.5 160v367h117v-385q0 -190 -64 -260q-33 -37 -76 -52t-105 -15q-124 0 -184.5 70t-60.5 248zM185 798l26 88l259 -77l-19 -66z" />
    <glyph glyph-name="Uacute" unicode="&#xda;" horiz-adv-x="684" 
d="M97 305v394h117v-367q0 -109 11.5 -159.5t36.5 -66.5t80.5 -15.5t80 16t36 65.5t11.5 160v367h117v-385q0 -190 -64 -260q-33 -37 -76 -52t-105 -15q-124 0 -184.5 70t-60.5 248zM235 742l-18 66l256 79l28 -89z" />
    <glyph glyph-name="Ucircumflex" unicode="&#xdb;" horiz-adv-x="684" 
d="M97 305v394h117v-367q0 -109 11.5 -159.5t36.5 -66.5t80.5 -15.5t80 16t36 65.5t11.5 160v367h117v-385q0 -190 -64 -260q-33 -37 -76 -52t-105 -15q-124 0 -184.5 70t-60.5 248zM201 738l-31 48l142 98h61l142 -98l-31 -48l-138 60h-7z" />
    <glyph glyph-name="Udieresis" unicode="&#xdc;" horiz-adv-x="684" 
d="M97 305v394h117v-367q0 -109 11.5 -159.5t36.5 -66.5t80.5 -15.5t80 16t36 65.5t11.5 160v367h117v-385q0 -190 -64 -260q-33 -37 -76 -52t-105 -15q-124 0 -184.5 70t-60.5 248zM176 762v94h120v-94h-120zM389 762v94h120v-94h-120z" />
    <glyph glyph-name="Yacute" unicode="&#xdd;" horiz-adv-x="547" 
d="M210 0l3 256l-210 443h127l137 -347h5l138 347h127l-210 -443l2 -256h-119zM168 742l-18 66l256 79l28 -89z" />
    <glyph glyph-name="Thorn" unicode="&#xde;" horiz-adv-x="616" 
d="M99 343l-4 356h117v-88q86 6 136 6q102 0 157 -60.5t55 -178.5q0 -143 -74 -200q-65 -49 -161 -49l-113 5v-134h-117zM211 238q63 -10 128.5 -10t82.5 29t17 131t-31 121q-18 15 -80.5 15t-116.5 -8v-278z" />
    <glyph glyph-name="germandbls" unicode="&#xdf;" horiz-adv-x="645" 
d="M97 0v474q0 119 63 178.5t155.5 59.5t157 -49.5t64.5 -139.5q0 -63 -28 -99.5t-62 -48.5v-6q126 -31 126 -170q0 -103 -59 -157.5t-151 -54.5q-36 0 -80 8l12 89q24 -4 67.5 -4t66 27t22.5 92t-28 94.5t-93 29.5h-23v86q64 5 89.5 29.5t25.5 79.5q0 104 -105 104
q-54 0 -78.5 -33.5t-24.5 -108.5v-480h-117z" />
    <glyph glyph-name="agrave" unicode="&#xe0;" horiz-adv-x="588" 
d="M216 -13q-77 0 -123.5 48.5t-46.5 145t62.5 140.5t180.5 44l96 -1q0 97 -15.5 117.5t-60.5 20.5t-100.5 -11t-117.5 -34l-31 85l37.5 15.5t87.5 25t117 15.5q199 0 199 -216v-382h-74l-16 63h-5q-11 -9 -29.5 -21.5t-69 -33.5t-91.5 -21zM385 270q-41 6 -111 6t-87 -17
q-22 -20 -22 -76.5t14.5 -77t47 -20.5t72 11.5t86.5 33.5v140zM147 721l32 92l262 -93l-22 -68z" />
    <glyph glyph-name="aacute" unicode="&#xe1;" horiz-adv-x="588" 
d="M216 -13q-77 0 -123.5 48.5t-46.5 145t62.5 140.5t180.5 44l96 -1q0 97 -15.5 117.5t-60.5 20.5t-100.5 -11t-117.5 -34l-31 85l37.5 15.5t87.5 25t117 15.5q199 0 199 -216v-382h-74l-16 63h-5q-11 -9 -29.5 -21.5t-69 -33.5t-91.5 -21zM385 270q-41 6 -111 6t-87 -17
q-22 -20 -22 -76.5t14.5 -77t47 -20.5t72 11.5t86.5 33.5v140zM169 652l-22 68l262 93l32 -92z" />
    <glyph glyph-name="acircumflex" unicode="&#xe2;" horiz-adv-x="588" 
d="M216 -13q-77 0 -123.5 48.5t-46.5 145t62.5 140.5t180.5 44l96 -1q0 97 -15.5 117.5t-60.5 20.5t-100.5 -11t-117.5 -34l-31 85l37.5 15.5t87.5 25t117 15.5q199 0 199 -216v-382h-74l-16 63h-5q-11 -9 -29.5 -21.5t-69 -33.5t-91.5 -21zM385 270q-41 6 -111 6t-87 -17
q-22 -20 -22 -76.5t14.5 -77t47 -20.5t72 11.5t86.5 33.5v140zM150 647l-33 50l146 107h61l147 -107l-35 -50l-139 69h-7z" />
    <glyph glyph-name="atilde" unicode="&#xe3;" horiz-adv-x="588" 
d="M216 -13q-77 0 -123.5 48.5t-46.5 145t62.5 140.5t180.5 44l96 -1q0 97 -15.5 117.5t-60.5 20.5t-100.5 -11t-117.5 -34l-31 85l37.5 15.5t87.5 25t117 15.5q199 0 199 -216v-382h-74l-16 63h-5q-11 -9 -29.5 -21.5t-69 -33.5t-91.5 -21zM385 270q-41 6 -111 6t-87 -17
q-22 -20 -22 -76.5t14.5 -77t47 -20.5t72 11.5t86.5 33.5v140zM191 786q30 0 110.5 -21.5t87.5 -21.5q13 0 29 42l63 -9q-1 -115 -82 -115q-29 0 -110.5 22.5t-88.5 22.5q-14 0 -30 -43l-63 8q1 115 84 115z" />
    <glyph glyph-name="adieresis" unicode="&#xe4;" horiz-adv-x="588" 
d="M216 -13q-77 0 -123.5 48.5t-46.5 145t62.5 140.5t180.5 44l96 -1q0 97 -15.5 117.5t-60.5 20.5t-100.5 -11t-117.5 -34l-31 85l37.5 15.5t87.5 25t117 15.5q199 0 199 -216v-382h-74l-16 63h-5q-11 -9 -29.5 -21.5t-69 -33.5t-91.5 -21zM385 270q-41 6 -111 6t-87 -17
q-22 -20 -22 -76.5t14.5 -77t47 -20.5t72 11.5t86.5 33.5v140zM127 677v93h124v-93h-124zM338 677v93h123v-93h-123z" />
    <glyph glyph-name="aring" unicode="&#xe5;" horiz-adv-x="588" 
d="M216 -13q-77 0 -123.5 48.5t-46.5 145t62.5 140.5t180.5 44l96 -1q0 97 -15.5 117.5t-60.5 20.5t-100.5 -11t-117.5 -34l-31 85l37.5 15.5t87.5 25t117 15.5q199 0 199 -216v-382h-74l-16 63h-5q-11 -9 -29.5 -21.5t-69 -33.5t-91.5 -21zM385 270q-41 6 -111 6t-87 -17
q-22 -20 -22 -76.5t14.5 -77t47 -20.5t72 11.5t86.5 33.5v140zM188 731q0 90 93.5 90t93.5 -90q0 -48 -26.5 -68.5t-66.5 -20.5t-67 20.5t-27 68.5zM252.5 760.5q-8.5 -7.5 -8.5 -29t9 -29.5t28.5 -8t28 8t8.5 29.5t-8 29t-28.5 7.5t-29 -7.5z" />
    <glyph glyph-name="ae" unicode="&#xe6;" horiz-adv-x="919" 
d="M225 -13q-77 0 -122.5 48.5t-45.5 142.5t64.5 135t182.5 41h92q0 104 -15 126t-61.5 22t-100.5 -11t-117 -34l-31 86q44 20 113 37.5t120 17.5q113 0 163 -64h4q60 64 170 64t165 -62.5t55 -207.5v-70h-347q0 -120 31 -150q17 -17 34.5 -21.5t50 -4.5t80 10t109.5 31
l29 -88q-42 -19 -100.5 -33.5t-106.5 -14.5q-132 0 -191 84h-4q-47 -38 -111 -61t-110 -23zM396 260q-38 6 -107 6t-91 -16t-22 -70t17 -74.5t51 -20.5q62 0 130 33l22 11v131zM643 503q-79 0 -103 -35t-26 -123l229 4q0 110 -21 129q-28 25 -79 25z" />
    <glyph glyph-name="ccedilla" unicode="&#xe7;" horiz-adv-x="534" 
d="M201 -94q45 -5 70.5 -5t36 6t10.5 29t-7 51q-115 0 -182 74t-67 233q0 174 80 243q72 61 190 61q78 0 154 -19l-13 -91q-109 14 -167 14t-82 -24q-42 -45 -42 -192t57 -189q21 -15 54.5 -15t76.5 12t97 35l34 -85q-45 -33 -117 -49q11 -42 11 -69q0 -48 -31 -76.5
t-83 -28.5q-30 0 -80 9v76z" />
    <glyph glyph-name="egrave" unicode="&#xe8;" horiz-adv-x="589" 
d="M312 -13q-250 0 -250 305.5t248 305.5q111 0 166.5 -64t55.5 -212v-72h-349q0 -111 38 -146q25 -22 67 -22q81 0 171 30l31 11l28 -88q-98 -48 -206 -48zM414 372q0 6 -1 26.5t-2 25t-3.5 20t-6 19t-9 13.5t-12.5 12.5t-16 7.5q-14 7 -53.5 7t-65 -9t-39 -32t-17.5 -50
t-5 -75l230 5v30zM148 721l32 92l262 -93l-22 -68z" />
    <glyph glyph-name="eacute" unicode="&#xe9;" horiz-adv-x="589" 
d="M312 -13q-250 0 -250 305.5t248 305.5q111 0 166.5 -64t55.5 -212v-72h-349q0 -111 38 -146q25 -22 67 -22q81 0 171 30l31 11l28 -88q-98 -48 -206 -48zM414 372q0 6 -1 26.5t-2 25t-3.5 20t-6 19t-9 13.5t-12.5 12.5t-16 7.5q-14 7 -53.5 7t-65 -9t-39 -32t-17.5 -50
t-5 -75l230 5v30zM170 652l-22 68l262 93l32 -92z" />
    <glyph glyph-name="ecircumflex" unicode="&#xea;" horiz-adv-x="589" 
d="M312 -13q-250 0 -250 305.5t248 305.5q111 0 166.5 -64t55.5 -212v-72h-349q0 -111 38 -146q25 -22 67 -22q81 0 171 30l31 11l28 -88q-98 -48 -206 -48zM414 372q0 6 -1 26.5t-2 25t-3.5 20t-6 19t-9 13.5t-12.5 12.5t-16 7.5q-14 7 -53.5 7t-65 -9t-39 -32t-17.5 -50
t-5 -75l230 5v30zM150 647l-33 50l146 107h61l147 -107l-35 -50l-139 69h-7z" />
    <glyph glyph-name="edieresis" unicode="&#xeb;" horiz-adv-x="589" 
d="M312 -13q-250 0 -250 305.5t248 305.5q111 0 166.5 -64t55.5 -212v-72h-349q0 -111 38 -146q25 -22 67 -22q81 0 171 30l31 11l28 -88q-98 -48 -206 -48zM414 372q0 6 -1 26.5t-2 25t-3.5 20t-6 19t-9 13.5t-12.5 12.5t-16 7.5q-14 7 -53.5 7t-65 -9t-39 -32t-17.5 -50
t-5 -75l230 5v30zM127 677v93h124v-93h-124zM338 677v93h123v-93h-123z" />
    <glyph glyph-name="igrave" unicode="&#xec;" horiz-adv-x="310" 
d="M-9 720l32 93l252 -93l-22 -68zM97 0v585h116v-585h-116z" />
    <glyph glyph-name="iacute" unicode="&#xed;" horiz-adv-x="310" 
d="M44 652l-22 68l252 93l32 -93zM97 0v585h116v-585h-116z" />
    <glyph glyph-name="icircumflex" unicode="&#xee;" horiz-adv-x="310" 
d="M20 649l-33 51l137 104h61l138 -104l-35 -51l-130 67h-7zM97 0v585h116v-585h-116z" />
    <glyph glyph-name="idieresis" unicode="&#xef;" horiz-adv-x="310" 
d="M1 677v93h121v-93h-121zM188 677v93h120v-93h-120zM97 0v585h116v-585h-116z" />
    <glyph glyph-name="eth" unicode="&#xf0;" horiz-adv-x="603" 
d="M294 660l-62 46l60 64q52 -28 96 -63l103 55l7 -81l-57 -30q91 -106 96 -324q0 -38 -1 -56q-5 -139 -59.5 -211.5t-176.5 -72.5q-235 0 -235 279q0 117 54 186t172 69q77 0 137 -41l5 3q-21 64 -81 124l-111 -54l-8 79zM207 116.5q25 -37.5 94.5 -37.5t93.5 37.5t24 141
t-25 137t-92.5 33.5t-93.5 -33.5t-26 -137t25 -141z" />
    <glyph glyph-name="ntilde" unicode="&#xf1;" horiz-adv-x="620" 
d="M93 0v585h76l13 -58h5q123 71 207.5 71t115 -55t30.5 -157v-386h-116v357q0 89 -11.5 112.5t-50.5 23.5t-83.5 -16t-69.5 -32v-445h-116zM207 786q29 0 110 -21.5t88 -21.5q13 0 29 42l63 -9q-1 -115 -82 -115q-29 0 -110.5 22.5t-88.5 22.5q-14 0 -30 -43l-63 8
q1 115 84 115z" />
    <glyph glyph-name="ograve" unicode="&#xf2;" horiz-adv-x="598" 
d="M482 64.5q-54 -77.5 -182.5 -77.5t-183 77.5t-54.5 227.5t54.5 228t183 78t182.5 -78t54 -228t-54 -227.5zM300 79q69 0 93 41.5t24 172t-24 171.5t-93 41t-93.5 -41t-24.5 -171.5t24.5 -172t93.5 -41.5zM152 721l32 92l262 -93l-22 -68z" />
    <glyph glyph-name="oacute" unicode="&#xf3;" horiz-adv-x="598" 
d="M482 64.5q-54 -77.5 -182.5 -77.5t-183 77.5t-54.5 227.5t54.5 228t183 78t182.5 -78t54 -228t-54 -227.5zM300 79q69 0 93 41.5t24 172t-24 171.5t-93 41t-93.5 -41t-24.5 -171.5t24.5 -172t93.5 -41.5zM174 652l-22 68l262 93l32 -92z" />
    <glyph glyph-name="ocircumflex" unicode="&#xf4;" horiz-adv-x="598" 
d="M482 64.5q-54 -77.5 -182.5 -77.5t-183 77.5t-54.5 227.5t54.5 228t183 78t182.5 -78t54 -228t-54 -227.5zM300 79q69 0 93 41.5t24 172t-24 171.5t-93 41t-93.5 -41t-24.5 -171.5t24.5 -172t93.5 -41.5zM155 647l-33 50l146 107h61l147 -107l-35 -50l-139 69h-7z" />
    <glyph glyph-name="otilde" unicode="&#xf5;" horiz-adv-x="598" 
d="M482 64.5q-54 -77.5 -182.5 -77.5t-183 77.5t-54.5 227.5t54.5 228t183 78t182.5 -78t54 -228t-54 -227.5zM300 79q69 0 93 41.5t24 172t-24 171.5t-93 41t-93.5 -41t-24.5 -171.5t24.5 -172t93.5 -41.5zM196 786q30 0 110 -21.5t88 -21.5q13 0 29 42l63 -9
q-1 -115 -82 -115q-29 0 -110.5 22.5t-88.5 22.5q-14 0 -30 -43l-63 8q1 115 84 115z" />
    <glyph glyph-name="odieresis" unicode="&#xf6;" horiz-adv-x="598" 
d="M482 64.5q-54 -77.5 -182.5 -77.5t-183 77.5t-54.5 227.5t54.5 228t183 78t182.5 -78t54 -228t-54 -227.5zM300 79q69 0 93 41.5t24 172t-24 171.5t-93 41t-93.5 -41t-24.5 -171.5t24.5 -172t93.5 -41.5zM132 677v93h124v-93h-124zM343 677v93h123v-93h-123z" />
    <glyph glyph-name="divide" unicode="&#xf7;" horiz-adv-x="636" 
d="M44 243v99h548v-99h-548zM248 28v109h139v-109h-139zM248 449v110h139v-110h-139z" />
    <glyph glyph-name="oslash" unicode="&#xf8;" horiz-adv-x="599" 
d="M132 49q-69 72 -69 232.5t54.5 238.5t182.5 78q49 0 85 -12l19 41h89l-38 -78q81 -71 81 -257q0 -150 -54 -227.5t-182 -77.5q-57 0 -101 19l-20 -44h-89zM346 500q-16 5 -54 5t-62 -16t-35.5 -61.5t-11.5 -132.5t7 -129l76 158zM300 79q69 0 92.5 41t23.5 157t-16 160
l-161 -346q18 -12 61 -12z" />
    <glyph glyph-name="ugrave" unicode="&#xf9;" horiz-adv-x="619" 
d="M80 199v386h116v-363q0 -96 13 -115q14 -17 51 -17q60 0 150 48v447h116v-585h-76l-14 58h-5q-1 -1 -22.5 -13t-30 -16l-30.5 -14.5t-37 -14.5q-42 -13 -76 -13q-155 0 -155 212zM162 721l32 92l262 -93l-22 -68z" />
    <glyph glyph-name="uacute" unicode="&#xfa;" horiz-adv-x="619" 
d="M80 199v386h116v-363q0 -96 13 -115q14 -17 51 -17q60 0 150 48v447h116v-585h-76l-14 58h-5q-1 -1 -22.5 -13t-30 -16l-30.5 -14.5t-37 -14.5q-42 -13 -76 -13q-155 0 -155 212zM185 652l-22 68l262 93l32 -92z" />
    <glyph glyph-name="ucircumflex" unicode="&#xfb;" horiz-adv-x="619" 
d="M80 199v386h116v-363q0 -96 13 -115q14 -17 51 -17q60 0 150 48v447h116v-585h-76l-14 58h-5q-1 -1 -22.5 -13t-30 -16l-30.5 -14.5t-37 -14.5q-42 -13 -76 -13q-155 0 -155 212zM165 647l-33 50l146 107h61l147 -107l-35 -50l-139 69h-7z" />
    <glyph glyph-name="udieresis" unicode="&#xfc;" horiz-adv-x="619" 
d="M80 199v386h116v-363q0 -96 13 -115q14 -17 51 -17q60 0 150 48v447h116v-585h-76l-14 58h-5q-1 -1 -22.5 -13t-30 -16l-30.5 -14.5t-37 -14.5q-42 -13 -76 -13q-155 0 -155 212zM142 677v93h124v-93h-124zM353 677v93h123v-93h-123z" />
    <glyph glyph-name="yacute" unicode="&#xfd;" horiz-adv-x="499" 
d="M117 -166l82 220l-204 531h129l124 -412h5l122 412h122l-205 -551l-55 -200h-120zM125 652l-22 68l262 93l32 -92z" />
    <glyph glyph-name="thorn" unicode="&#xfe;" horiz-adv-x="613" 
d="M211 97q77 -14 119 -14t59 15q42 35 42 208q0 104 -6.5 127.5t-8.5 33.5t-9 16.5t-10 10t-12.5 5t-13.5 2t-16 0t-29 -0.5q-43 0 -115 -20v-383zM96 -166v923h115v-178q85 19 140 19q99 0 149 -72.5t50 -228.5q0 -310 -222 -310q-35 0 -117 13v-166h-115z" />
    <glyph glyph-name="ydieresis" unicode="&#xff;" horiz-adv-x="499" 
d="M117 -166l82 220l-204 531h129l124 -412h5l122 412h122l-205 -551l-55 -200h-120zM83 677v93h124v-93h-124zM294 677v93h123v-93h-123z" />
    <glyph glyph-name="hbar" unicode="&#x127;" horiz-adv-x="619" 
d="M89 0v642h-81v80h81v35h116v-35h180v-80h-180v-94q111 51 189 51t111.5 -53.5t33.5 -159.5v-386h-116v358q0 85 -14 111t-56 26q-26 0 -63 -9.5t-85 -29.5v-456h-116z" />
    <glyph glyph-name="Itilde" unicode="&#x128;" horiz-adv-x="313" 
d="M71 870q27 0 89 -22t69 -22t14 10t14 31l63 -9q-1 -112 -77 -112q-27 0 -89.5 23t-69.5 23q-12 0 -28 -42l-63 8q1 112 78 112zM215 0l-118 -1l4 322l-4 378h118l-4 -310z" />
    <glyph glyph-name="itilde" unicode="&#x129;" horiz-adv-x="310" 
d="M52 786q26 0 97 -20.5t77 -20.5q12 0 22 40l65 -9q-1 -115 -71 -115q-26 0 -97.5 21.5t-77.5 21.5q-11 0 -23 -41l-65 8q1 115 73 115zM97 0v585h116v-585h-116z" />
    <glyph glyph-name="dotlessi" unicode="&#x131;" horiz-adv-x="310" 
d="M97 0v585h116v-585h-116z" />
    <glyph glyph-name="IJ" unicode="&#x132;" horiz-adv-x="636" 
d="M215 0l-118 -1l4 322l-4 378h118l-4 -310zM294 95q35 -8 66.5 -8t41.5 9q25 19 25 137v466h116v-458q0 -254 -182 -254q-33 0 -80 9z" />
    <glyph glyph-name="ij" unicode="&#x133;" horiz-adv-x="611" 
d="M99 0v585h115v-585h-115zM271 -74q39 -6 73.5 -6t44 23.5t9.5 116.5v522h115v-521q0 -239 -176 -239l-78 7zM88 663v94h135v-94h-135zM388 663v94h135v-94h-135z" />
    <glyph glyph-name="Jcircumflex" unicode="&#x134;" horiz-adv-x="331" 
d="M0 95q35 -8 66.5 -8t41.5 9q25 19 25 137v466h116v-458q0 -254 -182 -254q-33 0 -80 9zM58 741l-29 51l130 92h61l129 -92l-29 -51l-127 57h-7z" />
    <glyph glyph-name="jcircumflex" unicode="&#x135;" horiz-adv-x="327" 
d="M31 649l-33 51l139 104h61l140 -104l-35 -51l-132 67h-7zM-12 -74q39 -6 73 -6t44 23.5t10 116.5v525h115v-524q0 -127 -48 -183t-125 -56l-82 7z" />
    <glyph glyph-name="kcommaaccent" unicode="&#x137;" horiz-adv-x="571" 
d="M198 753v-753h-116l5 321l-5 432h116zM448 0l-249 314l232 268h139l-247 -263v-5l265 -314h-140zM242 -126v71h105v-10q0 -142 -101 -196l-42 37q21 18 29.5 39.5t8.5 58.5z" />
    <glyph glyph-name="kgreenlandic" unicode="&#x138;" horiz-adv-x="571" 
d="M448 0l-249 314l232 268h139l-247 -263v-5l265 -314h-140zM93 0v582h80l26 -76v-506h-106z" />
    <glyph glyph-name="Ldotaccent" unicode="&#x13f;" horiz-adv-x="467" 
d="M97 0v699h117l-5 -597l255 2v-104h-367zM300 341v108h130v-108h-130z" />
    <glyph glyph-name="ldot" unicode="&#x140;" horiz-adv-x="419" 
d="M82 0v757h115v-757h-115zM274 352v112h127v-112h-127z" />
    <glyph glyph-name="Lslash" unicode="&#x141;" horiz-adv-x="464" 
d="M97 0v253l-66 -41v94l66 41v352h117l-3 -282l156 100v-95l-156 -100l-2 -220l255 2v-104h-367z" />
    <glyph glyph-name="lslash" unicode="&#x142;" horiz-adv-x="326" 
d="M108 0v312l-87 -54v95l87 54v350h115v-277l82 52v-97l-82 -51v-384h-115z" />
    <glyph glyph-name="Nacute" unicode="&#x143;" horiz-adv-x="699" 
d="M97 0v699h153l251 -564h5l-14 564h111v-699h-153l-250 563h-5l13 -563h-111zM259 742l-19 66l256 79l28 -89z" />
    <glyph glyph-name="nacute" unicode="&#x144;" horiz-adv-x="620" 
d="M93 0v585h76l13 -58h5q123 71 207.5 71t115 -55t30.5 -157v-386h-116v357q0 89 -11.5 112.5t-50.5 23.5t-83.5 -16t-69.5 -32v-445h-116zM199 652l-22 68l262 93l32 -92z" />
    <glyph glyph-name="OE" unicode="&#x152;" horiz-adv-x="941" 
d="M503 0v41h-4q-65 -54 -159 -54q-156 0 -222 108q-54 87 -54 256q0 213 82 291q40 38 86.5 54t107.5 16q96 0 159 -53h4v40h378v-103l-262 3l-4 -195h241v-99h-241l4 -205l262 2v-102h-378zM283.5 96.5q22.5 -5.5 68.5 -5.5t76 17q66 37 66 240q0 84 -8 135t-28.5 79
t-47 37t-70.5 9t-70 -9t-46.5 -37t-28.5 -79t-8 -126.5t6 -121.5t17 -74.5t31 -43.5t42.5 -20.5z" />
    <glyph glyph-name="oe" unicode="&#x153;" horiz-adv-x="945" 
d="M480 65q-58 -78 -183.5 -78t-180 77.5t-54.5 227.5t54.5 228t180.5 78t183 -79h4q60 79 176.5 79t172 -64t55.5 -212v-72h-349q0 -111 38 -146q25 -22 67 -22q81 0 171 30l31 11l28 -88q-98 -48 -213.5 -48t-176.5 78h-4zM300 79q69 0 93 41.5t24 172t-24 171.5t-93 41
t-93.5 -41t-24.5 -171.5t24.5 -172t93.5 -41.5zM540 337l230 5q-1 94 -11 119q-20 42 -89 42q-43 0 -68.5 -9t-39 -32t-17.5 -50t-5 -75z" />
    <glyph glyph-name="Racute" unicode="&#x154;" horiz-adv-x="667" 
d="M340 712q241 0 241 -225q0 -166 -146 -207v-5l163 -275h-137l-136 264l-110 4v-268h-118l5 328l-3 370q112 14 241 14zM214 368q79 -9 138.5 -9t83 29.5t23.5 106t-24 103.5q-21 22 -86.5 22t-133.5 -9zM216 740l-20 65l254 87l30 -87z" />
    <glyph glyph-name="Rcommaaccent" unicode="&#x156;" horiz-adv-x="667" 
d="M340 712q241 0 241 -225q0 -166 -146 -207v-5l163 -275h-137l-136 264l-110 4v-268h-118l5 328l-3 370q112 14 241 14zM214 368q79 -9 138.5 -9t83 29.5t23.5 106t-24 103.5q-21 22 -86.5 22t-133.5 -9zM269 -126v71h105v-10q0 -142 -101 -196l-42 37q21 18 29.5 39.5
t8.5 58.5z" />
    <glyph glyph-name="rcommaaccent" unicode="&#x157;" horiz-adv-x="416" 
d="M98 -126v71h105v-10q0 -142 -101 -196l-42 37q21 18 29.5 39.5t8.5 58.5zM347 598q29 0 53 -8l-9 -104q-25 2 -45 2q-75 0 -137 -44v-444h-116v585h73l15 -61h6q36 29 83.5 51.5t76.5 22.5z" />
    <glyph glyph-name="Rcaron" unicode="&#x158;" horiz-adv-x="667" 
d="M340 712q241 0 241 -225q0 -166 -146 -207v-5l163 -275h-137l-136 264l-110 4v-268h-118l5 328l-3 370q112 14 241 14zM214 368q79 -9 138.5 -9t83 29.5t23.5 106t-24 103.5q-21 22 -86.5 22t-133.5 -9zM152 847l31 48l138 -60h7l138 60l31 -48l-142 -97h-61z" />
    <glyph glyph-name="rcaron" unicode="&#x159;" horiz-adv-x="416" 
d="M347 598q29 0 53 -8l-9 -104q-25 2 -45 2q-75 0 -137 -44v-444h-116v585h73q9 -47 15 -61h6q36 29 83.5 51.5t76.5 22.5zM62 768l31 46l138 -68h7l138 68l31 -46l-142 -107h-61z" />
    <glyph glyph-name="dotlessj" unicode="&#x237;" horiz-adv-x="327" 
d="M-12 -74q39 -6 73 -6t44 23.5t10 116.5v525h115v-524q0 -127 -48 -183t-125 -56l-82 7z" />
    <glyph glyph-name="circumflex" unicode="&#x2c6;" horiz-adv-x="546" 
d="M130 647l-33 50l146 107h61l147 -107l-35 -50l-139 69h-7z" />
    <glyph glyph-name="caron" unicode="&#x2c7;" horiz-adv-x="265" 
d="M-39 768l31 46l138 -68h7l138 68l31 -46l-142 -107h-61z" />
    <glyph glyph-name="ring" unicode="&#x2da;" horiz-adv-x="232" 
d="M22 731q0 90 93.5 90t93.5 -90q0 -48 -26.5 -68.5t-66.5 -20.5t-67 20.5t-27 68.5zM86.5 760.5q-8.5 -7.5 -8.5 -29t9 -29.5t28.5 -8t28 8t8.5 29.5t-8 29t-28.5 7.5t-29 -7.5z" />
    <glyph glyph-name="tilde" unicode="&#x2dc;" horiz-adv-x="548" 
d="M171 786q29 0 110 -21.5t88 -21.5q13 0 29 42l63 -9q-1 -115 -82 -115q-29 0 -110.5 22.5t-88.5 22.5q-14 0 -30 -43l-63 8q1 115 84 115z" />
    <glyph glyph-name="dotaccentcmb" unicode="&#x307;" horiz-adv-x="318" 
d="M99 676v94h120v-94h-120z" />
    <glyph glyph-name="endash" unicode="&#x2013;" horiz-adv-x="589" 
d="M547 376v-98h-505l1 98h504z" />
    <glyph glyph-name="emdash" unicode="&#x2014;" horiz-adv-x="824" 
d="M62 278v98h700v-98h-700z" />
    <glyph glyph-name="quoteleft" unicode="&#x2018;" horiz-adv-x="235" 
d="M55 535q0 131 72 201l56 -38q-28 -45 -28 -114l6 -119h-102q-4 28 -4 70z" />
    <glyph glyph-name="quoteright" unicode="&#x2019;" horiz-adv-x="235" 
d="M183 651q0 -131 -72 -201l-56 39q28 44 28 113l-7 120h103q4 -38 4 -71z" />
    <glyph glyph-name="quotesinglbase" unicode="&#x201a;" horiz-adv-x="258" 
d="M112 -138l-56 38q28 43 28 113l-6 120h101q5 -35 5 -71q-1 -133 -72 -200z" />
    <glyph glyph-name="quotedblleft" unicode="&#x201c;" horiz-adv-x="411" 
d="M338 465h-103q-4 28 -4 69q1 122 74 195l54 -35q-27 -42 -27 -111zM52 535q0 133 72 203l56 -38q-28 -45 -28 -116l6 -119h-102q-4 28 -4 70z" />
    <glyph glyph-name="quotedblright" unicode="&#x201d;" horiz-adv-x="411" 
d="M180 653q0 -122 -74 -196l-54 36q27 40 27 111l-6 118h103q4 -28 4 -69zM360 651q0 -133 -72 -203l-56 39q28 44 28 115l-7 120h103q4 -38 4 -71z" />
    <glyph glyph-name="quotedblbase" unicode="&#x201e;" horiz-adv-x="449" 
d="M110 -138l-56 37q28 41 28 112l-6 121h101q5 -35 5 -71q-1 -134 -72 -199zM362 60q0 -135 -71 -200l-56 38q28 41 28 112l-6 122h101q4 -28 4 -72z" />
    <glyph glyph-name="bullet" unicode="&#x2022;" horiz-adv-x="392" 
d="M291.5 325.5q-38.5 -33.5 -95 -33.5t-95.5 33.5t-39 103.5t38.5 102t95.5 32t95.5 -32.5t38.5 -102t-38.5 -103z" />
    <glyph glyph-name="guilsinglleft" unicode="&#x2039;" horiz-adv-x="300" 
d="M182 83l-150 254l150 253l87 -52l-123 -198v-6l123 -198z" />
    <glyph glyph-name="guilsinglright" unicode="&#x203a;" horiz-adv-x="300" 
d="M31 136l123 198v6l-123 198l88 52l149 -253l-149 -254z" />
    <glyph glyph-name="Euro" unicode="&#x20ac;" horiz-adv-x="610" 
d="M38 242v81h470v-81h-283q11 -94 39 -125t79 -31t100.5 11t102.5 33l33 -87q-10 -6 -28.5 -15.5t-76 -25t-117.5 -15.5q-221 0 -255 255h-64zM38 383v81h65q20 140 88 194t176 54t188 -20l-12 -97q-126 13 -173 13q-83 0 -108.5 -25.5t-36.5 -118.5h283v-81h-470z" />
    <glyph glyph-name="CR" horiz-adv-x="276" 
 />
    <glyph glyph-name="commaaccent" horiz-adv-x="259" 
d="M87 13v71h105v-10q0 -142 -101 -196l-42 37q21 18 29.5 39.5t8.5 58.5z" />
    <glyph glyph-name="dieresis.cap" horiz-adv-x="464" 
d="M62 764v93h120v-93h-120zM275 764v93h120v-93h-120z" />
    <glyph glyph-name="dotaccentcmb.cap" horiz-adv-x="375" 
d="M129 755v95h120v-95h-120z" />
    <glyph glyph-name="grave.cap" horiz-adv-x="477" 
d="M114 798l26 88l259 -77l-19 -66z" />
    <glyph glyph-name="acute.cap" horiz-adv-x="486" 
d="M170 742l-19 66l256 79l28 -89z" />
    <glyph glyph-name="circumflex.cap" horiz-adv-x="328" 
d="M22 738l-30 48l141 98h61l142 -98l-30 -48l-139 60h-7q-8 -4 -138 -60z" />
    <glyph glyph-name="ring.cap" horiz-adv-x="283" 
d="M75 747.5q-27 20.5 -27 67.5t27 67.5t67.5 20.5t67 -20.5t26.5 -67.5t-27 -67.5t-67 -20.5t-67 20.5zM114.5 841.5q-8.5 -6.5 -8.5 -26.5t8.5 -27t28 -7t27 6.5t7.5 27t-7.5 27t-27 6.5t-28 -6.5z" />
    <glyph glyph-name="caron.cap" horiz-adv-x="355" 
d="M5 847l31 48l138 -60h7l138 60l31 -48l-142 -97h-61z" />
    <glyph glyph-name="tilde.cap" horiz-adv-x="507" 
d="M148 870q29 0 109.5 -22.5t88.5 -22.5q14 0 24 31l4 11l63 -9q-1 -112 -82 -112q-29 0 -110 23.5t-88 23.5t-14.5 -10.5t-15.5 -32.5l-63 8q1 112 84 112z" />
    </font>
</defs>
</svg>
